<svg xmlns="http://www.w3.org/2000/svg" version="1.1" x="0" y="0" width="554.6" height="554.6" viewBox="0 0 554.6 554.6" xml:space="preserve"><path d="M229.5 210.4h-19.1c-21 0-38.2 17.2-38.2 38.3V306c0 21 17.2 38.3 38.3 38.3H229.5c21 0 38.3-17.2 38.3-38.2v-57.4C267.8 227.6 250.5 210.4 229.5 210.4zM248.6 306c0 11.5-7.6 19.1-19.1 19.1h-19.1c-11.5 0-19.1-7.6-19.1-19.1v-57.4c0-11.5 7.7-19.1 19.1-19.1H229.5c11.5 0 19.1 7.7 19.1 19.1V306zM114.8 210.4H57.4V344.3h57.4c21 0 38.3-17.2 38.3-38.2v-57.4C153 227.6 135.8 210.4 114.8 210.4zM133.9 306c0 11.5-7.6 19.1-19.1 19.1H76.5V229.5h38.3c11.5 0 19.1 7.7 19.1 19.1V306z"/><polygon points="478.1 210.4 449.4 260.1 420.8 210.4 401.6 210.4 439.9 277.3 401.6 344.3 420.8 344.3 449.4 294.5 478.1 344.3 497.3 344.3 459 277.3 497.3 210.4 "/><path d="M497.3 153H57.4C24.9 153 0 177.9 0 210.4V344.3c0 32.5 24.9 57.4 57.4 57.4H497.3c32.5 0 57.4-24.9 57.4-57.4V210.4C554.6 177.9 529.8 153 497.3 153zM535.5 344.3c0 21-17.2 38.3-38.2 38.3H57.4c-21 0-38.2-17.2-38.2-38.2V210.4c0-21 17.2-38.2 38.3-38.2H497.3c21 0 38.3 17.2 38.3 38.3V344.3zM325.1 229.5h19.1c11.5 0 19.1 7.7 19.1 19.1H382.5c0-21-17.2-38.2-38.2-38.2h-19.1c-21 0-38.2 17.2-38.2 38.3V306c0 21 17.2 38.3 38.3 38.3h19.1c21 0 38.3-17.2 38.3-38.2h-19.1c0 11.5-7.6 19.1-19.1 19.1h-19.1C313.7 325.1 306 317.5 306 306v-57.4C306 237.2 313.7 229.5 325.1 229.5z"/></svg>
