<svg xmlns="http://www.w3.org/2000/svg" width="554.6" height="554.6" viewBox="0 0 554.6 554.6"><path d="M229.5 210.4h-19.1c-21 0-38.2 17.2-38.2 38.3V306c0 21 17.2 38.3 38.3 38.3h19c21 0 38.3-17.2 38.3-38.2v-57.4c0-21.1-17.3-38.3-38.3-38.3zm19.1 95.6c0 11.5-7.6 19.1-19.1 19.1h-19.1c-11.5 0-19.1-7.6-19.1-19.1v-57.4c0-11.5 7.7-19.1 19.1-19.1h19.1c11.5 0 19.1 7.7 19.1 19.1V306zm-133.8-95.6H57.4v133.9h57.4c21 0 38.3-17.2 38.3-38.2v-57.4c-.1-21.1-17.3-38.3-38.3-38.3zm19.1 95.6c0 11.5-7.6 19.1-19.1 19.1H76.5v-95.6h38.3c11.5 0 19.1 7.7 19.1 19.1V306zm344.2-95.6l-28.7 49.7-28.6-49.7h-19.2l38.3 66.9-38.3 67h19.2l28.6-49.8 28.7 49.8h19.2l-38.3-67 38.3-66.9z"/><path d="M497.3 153H57.4C24.9 153 0 177.9 0 210.4v133.9c0 32.5 24.9 57.4 57.4 57.4h439.9c32.5 0 57.4-24.9 57.4-57.4V210.4c-.1-32.5-24.9-57.4-57.4-57.4zm38.2 191.3c0 21-17.2 38.3-38.2 38.3H57.4c-21 0-38.2-17.2-38.2-38.2v-134c0-21 17.2-38.2 38.3-38.2h439.8c21 0 38.3 17.2 38.3 38.3v133.8zM325.1 229.5h19.1c11.5 0 19.1 7.7 19.1 19.1h19.2c0-21-17.2-38.2-38.2-38.2h-19.1c-21 0-38.2 17.2-38.2 38.3V306c0 21 17.2 38.3 38.3 38.3h19.1c21 0 38.3-17.2 38.3-38.2h-19.1c0 11.5-7.6 19.1-19.1 19.1h-19.1c-11.7-.1-19.4-7.7-19.4-19.2v-57.4c0-11.4 7.7-19.1 19.1-19.1z"/></svg>