<svg id="Layer_1" xmlns="http://www.w3.org/2000/svg" viewBox="0 0 797.4 750"><style>.st0{stroke:#000;stroke-width:100;stroke-miterlimit:10}</style><path class="st0" d="M258.1 50C156.6 50 50 119 50 269.9c0 148.3 85.7 225.4 214.3 225.4 52.7 0 99.8-13.6 137-31.6V267.2H272.5l1.4 8.6H390V459c-32.3 15.2-71.8 27.7-125.7 27.7-122.5 0-202.6-73.6-202.6-216.8 0-147.8 101.4-211.3 196.4-211.3 48.7 0 85.4 11.3 122.8 34.4l6.9-6.4C348.3 62.4 310.9 50 258.1 50z"/><path class="st0" d="M537 491.4L685.5 700H700L549.7 490.4c68.8-7.4 127.7-38.2 127.7-111.4 0-69.9-48-112-173.6-112H390.3v433h11.4V491.4H537zm-13.6-8.6H401.6V275.7h100.8c121.1 0 163.2 39.1 163.2 103.4.1 73.5-63.1 103.7-142.2 103.7z"/></svg>