<svg xmlns="http://www.w3.org/2000/svg" width="439.9" height="439.9" viewBox="0 0 439.9 439.9"><path d="M114.8 172.1H76.5v38.3h38.3c11.5 0 19.1-7.6 19.1-19.1s-7.7-19.2-19.1-19.2zm114.7 0h-38.2v95.6h38.3c11.5 0 19.1-7.6 19.1-19.1v-57.3c-.1-11.5-7.7-19.2-19.2-19.2zm153-76.5H57.4C24.9 95.6 0 120.5 0 153v133.9c0 32.5 24.9 57.4 57.4 57.4h325.1c32.5 0 57.4-24.9 57.4-57.4V153c0-32.5-24.9-57.4-57.4-57.4zM114.8 229.5H76.5v57.4H57.4V153h57.4c21 0 38.3 17.2 38.3 38.3-.1 21-17.3 38.2-38.3 38.2zm153 19.1c0 21-17.2 38.3-38.2 38.3h-57.4V153h57.3c21 0 38.3 17.2 38.3 38.3v57.3zm114.7-76.5H306v38.3h57.4v19.1H306v57.4h-19.1V153h95.6v19.1z"/></svg>